<svg width="42" height="42" viewBox="0 0 42 42" fill="none" xmlns="http://www.w3.org/2000/svg">
<path d="M0.90332 17.3645C0.90332 15.1525 1.33907 12.9622 2.18568 10.9187C3.03229 8.87518 4.27318 7.01845 5.83747 5.45456C7.40176 3.89067 9.25881 2.65025 11.3025 1.80416C13.3463 0.958064 15.5367 0.522874 17.7486 0.523438H24.8509C27.0629 0.522874 29.2533 0.958064 31.297 1.80416C33.3408 2.65025 35.1978 3.89067 36.7621 5.45456C38.3264 7.01845 39.5673 8.87518 40.4139 10.9187C41.2605 12.9622 41.6963 15.1525 41.6963 17.3645V24.471C41.6963 28.9387 39.9215 33.2234 36.7624 36.3825C33.6033 39.5416 29.3186 41.3164 24.8509 41.3164H17.7486C13.281 41.3164 8.99632 39.5416 5.83721 36.3825C2.67809 33.2234 0.90332 28.9387 0.90332 24.471V17.3645Z" fill="white"/>
<path d="M21.8237 7.26953C14.6527 7.29959 8.98892 12.3149 8.08289 19.1768C7.63834 22.4453 8.41836 25.7626 10.2728 28.4905C11.0329 29.6628 12.2266 29.9419 13.2786 29.242C14.2405 28.5893 14.4165 27.3741 13.708 26.2362C9.88207 20.1816 13.1326 12.7144 20.1791 11.4648C21.1373 11.3467 22.1064 11.3467 23.0646 11.4648C24.3013 11.555 25.2803 10.9409 25.4779 9.82875C25.5267 9.56092 25.5205 9.28593 25.4596 9.02057C25.3988 8.75521 25.2845 8.50502 25.1238 8.28526C24.9631 8.06549 24.7593 7.88075 24.5249 7.7423C24.2905 7.60384 24.0303 7.51458 23.7603 7.47994C23.1193 7.37246 22.4727 7.3022 21.8237 7.26953Z" fill="#1F2123"/>
<path d="M34.8689 20.8724C34.8088 20.3141 34.7529 19.5197 34.6413 18.7254C34.4524 17.4758 33.4518 16.6599 32.344 16.8059C32.0588 16.8298 31.7818 16.9138 31.5315 17.0526C31.2812 17.1914 31.0632 17.3818 30.8919 17.6111C30.7206 17.8404 30.6 18.1035 30.5379 18.3829C30.4758 18.6624 30.4738 18.9518 30.5319 19.232C30.8504 21.0631 30.6603 22.9464 29.9823 24.6768C28.2304 29.1082 23.6143 31.4141 18.8523 30.3406C17.7487 30.0916 16.8427 30.448 16.3617 31.3196C15.8808 32.1913 15.9624 33.2863 16.7611 33.7801C17.5539 34.2684 18.4431 34.5789 19.3675 34.6904C27.1826 35.5879 33.6923 30.521 34.783 22.7488C34.8259 22.1906 34.8259 21.6496 34.8689 20.8724Z" fill="#1F2123"/>
<path d="M27.2943 12.9813C27.3149 13.3169 27.4163 13.6427 27.5899 13.9307C27.7635 14.2187 28.0041 14.4605 28.2913 14.6355C28.5785 14.8105 28.9037 14.9135 29.2392 14.9358C29.5748 14.958 29.9108 14.8989 30.2185 14.7633C30.4701 14.6489 30.6952 14.4837 30.8798 14.2781C31.0721 14.0738 31.2186 13.8308 31.3092 13.5653C31.3955 13.304 31.4248 13.0272 31.3951 12.7537C31.3522 12.2138 31.1011 11.7117 30.6949 11.3536C30.2886 10.9954 29.759 10.8092 29.218 10.8343C28.9471 10.8378 28.6798 10.8974 28.4331 11.0096C28.1865 11.1217 27.9657 11.2837 27.7849 11.4855C27.6041 11.6873 27.4671 11.9245 27.3827 12.1819C27.2982 12.4394 27.2681 12.7116 27.2943 12.9813Z" fill="#DF3737"/>
</svg>
