<svg width="28" height="28" viewBox="0 0 28 28" fill="none" xmlns="http://www.w3.org/2000/svg">
<path d="M14.8237 0.335938C7.65271 0.365998 1.98892 5.38136 1.08289 12.2432C0.638338 15.5117 1.41836 18.829 3.27282 21.5569C4.03291 22.7292 5.22661 23.0083 6.27861 22.3084C7.24051 21.6557 7.41651 20.4405 6.70801 19.3026C2.88207 13.248 6.13261 5.78076 13.1791 4.53116C14.1373 4.41306 15.1064 4.41306 16.0646 4.53116C17.3013 4.62136 18.2803 4.00726 18.4779 2.89516C18.5267 2.62733 18.5205 2.35234 18.4596 2.08698C18.3988 1.82162 18.2845 1.57143 18.1238 1.35167C17.9631 1.1319 17.7593 0.947157 17.5249 0.808707C17.2905 0.670247 17.0303 0.580987 16.7603 0.546347C16.1193 0.438867 15.4727 0.368607 14.8237 0.335938Z" fill="white"/>
<path d="M27.8689 13.9388C27.8088 13.3805 27.7529 12.5861 27.6413 11.7918C27.4524 10.5422 26.4518 9.72633 25.344 9.87233C25.0588 9.89623 24.7818 9.98023 24.5315 10.119C24.2812 10.2578 24.0632 10.4482 23.8919 10.6775C23.7206 10.9068 23.6 11.1699 23.5379 11.4493C23.4758 11.7288 23.4738 12.0182 23.5319 12.2984C23.8504 14.1295 23.6603 16.0128 22.9823 17.7432C21.2304 22.1746 16.6143 24.4805 11.8523 23.407C10.7487 23.158 9.84268 23.5144 9.36168 24.386C8.88078 25.2577 8.96238 26.3527 9.76108 26.8465C10.5539 27.3348 11.4431 27.6453 12.3675 27.7568C20.1826 28.6543 26.6923 23.5874 27.783 15.8152C27.8259 15.257 27.8259 14.716 27.8689 13.9388Z" fill="white"/>
<path d="M20.2943 6.04768C20.3149 6.38328 20.4163 6.70908 20.5899 6.99708C20.7635 7.28508 21.0041 7.52688 21.2913 7.70188C21.5785 7.87688 21.9037 7.97988 22.2392 8.00218C22.5748 8.02438 22.9108 7.96528 23.2185 7.82968C23.4701 7.71528 23.6952 7.55008 23.8798 7.34448C24.0721 7.14018 24.2186 6.89718 24.3092 6.63168C24.3955 6.37038 24.4248 6.09358 24.3951 5.82008C24.3522 5.28018 24.1011 4.77808 23.6949 4.41998C23.2886 4.06178 22.759 3.87558 22.218 3.90068C21.9471 3.90418 21.6798 3.96378 21.4331 4.07598C21.1865 4.18808 20.9657 4.35008 20.7849 4.55188C20.6041 4.75368 20.4671 4.99088 20.3827 5.24828C20.2982 5.50578 20.2681 5.77798 20.2943 6.04768Z" fill="#DF3737"/>
</svg>
