<svg width="28" height="28" viewBox="0 0 28 28" fill="none" xmlns="http://www.w3.org/2000/svg">
<path d="M14.8237 0.449219C7.65271 0.479279 1.98892 5.49464 1.08289 12.3564C0.638338 15.6249 1.41836 18.9422 3.27282 21.6701C4.03291 22.8424 5.22661 23.1215 6.27861 22.4216C7.24051 21.7689 7.41651 20.5537 6.70801 19.4158C2.88207 13.3612 6.13261 5.89404 13.1791 4.64444C14.1373 4.52634 15.1064 4.52634 16.0646 4.64444C17.3013 4.73464 18.2803 4.12054 18.4779 3.00844C18.5267 2.74061 18.5205 2.46562 18.4596 2.20026C18.3988 1.9349 18.2845 1.68471 18.1238 1.46495C17.9631 1.24518 17.7593 1.06044 17.5249 0.921988C17.2905 0.783528 17.0303 0.694268 16.7603 0.659628C16.1193 0.552148 15.4727 0.481889 14.8237 0.449219Z" fill="#1F2123"/>
<path d="M27.8689 14.0521C27.8088 13.4938 27.7529 12.6994 27.6413 11.9051C27.4524 10.6555 26.4518 9.83961 25.344 9.98561C25.0588 10.0095 24.7818 10.0935 24.5315 10.2323C24.2812 10.3711 24.0632 10.5615 23.8919 10.7908C23.7206 11.0201 23.6 11.2832 23.5379 11.5626C23.4758 11.8421 23.4738 12.1315 23.5319 12.4117C23.8504 14.2428 23.6603 16.1261 22.9823 17.8565C21.2304 22.2879 16.6143 24.5938 11.8523 23.5203C10.7487 23.2713 9.84268 23.6277 9.36168 24.4993C8.88078 25.371 8.96238 26.466 9.76108 26.9598C10.5539 27.4481 11.4431 27.7586 12.3675 27.8701C20.1826 28.7676 26.6923 23.7007 27.783 15.9285C27.8259 15.3703 27.8259 14.8293 27.8689 14.0521Z" fill="#1F2123"/>
<path d="M20.2943 6.16096C20.3149 6.49656 20.4163 6.82236 20.5899 7.11036C20.7635 7.39836 21.0041 7.64016 21.2913 7.81516C21.5785 7.99016 21.9037 8.09316 22.2392 8.11546C22.5748 8.13766 22.9108 8.07856 23.2185 7.94296C23.4701 7.82856 23.6952 7.66336 23.8798 7.45776C24.0721 7.25346 24.2186 7.01046 24.3092 6.74496C24.3955 6.48366 24.4248 6.20686 24.3951 5.93336C24.3522 5.39346 24.1011 4.89136 23.6949 4.53326C23.2886 4.17506 22.759 3.98886 22.218 4.01396C21.9471 4.01746 21.6798 4.07706 21.4331 4.18926C21.1865 4.30136 20.9657 4.46336 20.7849 4.66516C20.6041 4.86696 20.4671 5.10416 20.3827 5.36156C20.2982 5.61906 20.2681 5.89126 20.2943 6.16096Z" fill="#DF3737"/>
</svg>
